<svg xmlns="http://www.w3.org/2000/svg" width="962.979" height="180.573" viewBox="0 0 962.979 180.573">
  <g id="Group_23" data-name="Group 23" transform="translate(-89.27 -199.74)">
    <path id="Path_61" data-name="Path 61" d="M198.513,313.5a28,28,0,0,1-6.455-10.525Q169.8,253.9,147.035,199.74q-9,23.936-21.407,54.327-4.755,11.047-13.847,30.819t-11.638,22.832q-2.551,3.232-4.755,6.367a9.009,9.009,0,0,1-6.118,3.82l.169.169H110l10.7-29.537,2.547-6.626,21.576-52.119q20.383,49.581,20.9,50.766l.677,1.353,2.725,6.626q4.233,10.525,11.549,29.706l26.331-.169v-.169A15.509,15.509,0,0,1,198.513,313.5Z" transform="translate(0 0)" fill="#315969"/>
    <path id="Path_62" data-name="Path 62" d="M244.027,308.641q0,5.348,6.3,6.655,1.544.24,10.822.238a31.529,31.529,0,0,0,7.613-.832q7.135-2.019,10.525-4.457a10.876,10.876,0,0,0,4.341-5.527l.119.12-2.38,15.331-.118.713-.952-.119a19.353,19.353,0,0,1-2.5.119q-9.039-.476-23.072-.476-10.231,0-27.473.119v-.119a6.715,6.715,0,0,0,4.816-3.149,13.649,13.649,0,0,0,1.725-7.428l.118-40.765H233.8V255.4h-.12v-.119a13.649,13.649,0,0,0-1.724-7.427,6.725,6.725,0,0,0-4.817-3.15v-.118h23.667v.118a6.532,6.532,0,0,0-4.816,3.507q-1.726,3.031-1.963,10.161Z" transform="translate(-7.523 -2.447)" fill="#315969"/>
    <path id="Path_63" data-name="Path 63" d="M367.776,247.466a6.724,6.724,0,0,0-4.816-3.149V244.2H382.7v.118a6.72,6.72,0,0,0-4.817,3.149,13.646,13.646,0,0,0-1.724,7.428l.119,33.753q.95,15.927-7.373,24.6-8.564,8.913-24.738,8.914-34.253,0-34.252-32.208l.119-35.06h-.119v-.119a13.653,13.653,0,0,0-1.724-7.427,6.721,6.721,0,0,0-4.817-3.149v-.119h23.668v.119a6.53,6.53,0,0,0-4.817,3.506q-1.726,3.031-1.963,9.923v30.307q0,14.858,6.125,21.749t19.8,6.893q23.428,0,23.429-26.978l-.119-34.7A13.654,13.654,0,0,0,367.776,247.466Z" transform="translate(-11.683 -2.419)" fill="#315969"/>
    <path id="Path_64" data-name="Path 64" d="M455.8,320.393q-4.4-6.892-32.112-49.56l.119,29.949v9.033a13.633,13.633,0,0,0,1.724,7.428,6.711,6.711,0,0,0,4.817,3.149v.119H410.61v-.119a6.715,6.715,0,0,0,4.816-3.149,13.65,13.65,0,0,0,1.725-7.428V299.357l.356-43.618q0-7.725-.238-11.409h.357l41.388,59.424q7.848-11.053,42.457-58.83v.119h.119l-.119.237.119,64.3a13.629,13.629,0,0,0,1.724,7.427,6.713,6.713,0,0,0,4.817,3.15v.118l-10.347-.118h-2.022q-4.758,0-11.061.118v-.118a6.907,6.907,0,0,0,4.877-3.15q1.784-2.673,1.665-7.427l-.476-40.29-34.966,51.1v.119h-.119v-.119Z" transform="translate(-17.535 -2.433)" fill="#315969"/>
    <path id="Path_65" data-name="Path 65" d="M562.091,243.558a9.437,9.437,0,0,0-5.352,1.961,17.731,17.731,0,0,0-3.805,4.339v59.78a8.725,8.725,0,0,0,1.784,5.586,11.345,11.345,0,0,0,2.973,3.031,10.865,10.865,0,0,0,4.162,1.724c.158.16.2.278.119.356a6.353,6.353,0,0,1-2.973.237,231.2,231.2,0,0,0-23.667,0,3.149,3.149,0,0,1-2.379-.475,11.306,11.306,0,0,0,6.838-2.912,8.76,8.76,0,0,0,3.033-6V253.542a8.723,8.723,0,0,0-.951-4.161,13.111,13.111,0,0,0-2.557-4.1,4.751,4.751,0,0,0-3.508-1.724q.95-.237,13.439-.3T562.091,243.558Z" transform="translate(-24.211 -2.374)" fill="#315969"/>
    <path id="Path_66" data-name="Path 66" d="M665.212,244.686a6.715,6.715,0,0,0-4.816,3.15,13.631,13.631,0,0,0-1.725,7.427l.238,42.191q0,13.193.356,21.274a4.649,4.649,0,0,1-.714,2.971h-1.07q-10.823-11.053-60.3-57.166l-.356,36.249v9.033a13.633,13.633,0,0,0,1.724,7.428,6.71,6.71,0,0,0,4.816,3.149v.119H583.626v-.119a6.719,6.719,0,0,0,4.816-3.149,13.65,13.65,0,0,0,1.724-7.428V299.357l.357-43.618q0-7.725-.238-11.409h.356l59.7,54.2q.952,1.069,1.308,1.069c.316,0,.476-.514.476-1.545l-.118-42.786a13.656,13.656,0,0,0-1.725-7.427,6.725,6.725,0,0,0-4.817-3.15v-.118h19.743Z" transform="translate(-26.976 -2.433)" fill="#315969"/>
    <path id="Path_67" data-name="Path 67" d="M755.494,316.918a19.509,19.509,0,0,1-4.524-7.364Q735.4,275.2,719.457,237.292q-6.305,16.75-14.987,38.032-3.326,7.72-9.7,21.567t-8.139,15.984q-1.79,2.258-3.33,4.461a6.322,6.322,0,0,1-4.284,2.671l.116.116h14.389l7.5-20.677,1.781-4.631,15.1-36.492q14.278,34.7,14.63,35.539l.473.953,1.905,4.631q2.979,7.373,8.085,20.8l18.433-.125v-.116A10.767,10.767,0,0,1,755.494,316.918Z" transform="translate(-32.181 -2.049)" fill="#315969"/>
    <path id="Path_68" data-name="Path 68" d="M840.44,244.33q-.12,11.053-.238,18.9h-.476q-5.352-7.961-9.039-10.577-4.637-3.327-15.936-3.328h-4.52q-2.14.24-2.378.95a1.684,1.684,0,0,0-.238.951L807.5,309.7a8.725,8.725,0,0,0,1.784,5.586,11.344,11.344,0,0,0,2.973,3.031,10.863,10.863,0,0,0,4.163,1.724c.158.16.2.278.119.356a6.356,6.356,0,0,1-2.973.237,231.2,231.2,0,0,0-23.667,0,3.152,3.152,0,0,1-2.38-.475,11.308,11.308,0,0,0,6.839-2.912,8.764,8.764,0,0,0,3.033-6l-.119-60.019a1.909,1.909,0,0,0-1.189-1.783h-6.3q-11.3,0-15.937,3.329-3.687,2.615-9.038,10.578h-.477q-.119-7.845-.237-18.9l32.706.119Z" transform="translate(-36.823 -2.433)" fill="#315969"/>
    <path id="Path_69" data-name="Path 69" d="M892.475,243.558a9.431,9.431,0,0,0-5.351,1.961,17.715,17.715,0,0,0-3.806,4.339v59.78a8.725,8.725,0,0,0,1.784,5.586,11.348,11.348,0,0,0,2.973,3.031,10.864,10.864,0,0,0,4.163,1.724c.158.16.2.278.118.356a6.353,6.353,0,0,1-2.973.237,231.2,231.2,0,0,0-23.667,0,3.149,3.149,0,0,1-2.379-.475,11.306,11.306,0,0,0,6.838-2.912,8.76,8.76,0,0,0,3.033-6V253.542a8.723,8.723,0,0,0-.951-4.161,13.076,13.076,0,0,0-2.557-4.1,4.751,4.751,0,0,0-3.508-1.724q.952-.237,13.439-.3T892.475,243.558Z" transform="translate(-42.239 -2.374)" fill="#315969"/>
    <path id="Path_70" data-name="Path 70" d="M986.19,253.62q-11.888-11.181-29.733-11.176-17.484,0-29.733,11.408A37.813,37.813,0,0,0,914.355,282.5q0,17.713,12.253,28.763a41.71,41.71,0,0,0,4.79,3.757l5.824-5.823.036-.036.205.169a2.065,2.065,0,0,1-.205-.178,28.476,28.476,0,0,1-2.092-2.049q-9.029-9.87-9.038-26.981,0-14.267,7.791-23.179a25.145,25.145,0,0,1,19.8-8.914q14.627,0,23.429,9.394,9.269,9.858,9.279,26.742,0,11.514-4.853,19.554a28.928,28.928,0,0,1-2.823,3.918,24.822,24.822,0,0,1-19.8,8.967,36.365,36.365,0,0,1-12.929-2.173,28.387,28.387,0,0,1-7.472-4.194c-.107-.09-.214-.169-.32-.259l.312.268c-.107.115-.205.232-.3.347l-3.855,3.856-1.514,1.514q10.072,6.118,23.58,6.108a41.355,41.355,0,0,0,29.376-11.523A37.546,37.546,0,0,0,998.2,282.142Q998.2,264.791,986.19,253.62Z" transform="translate(-45.023 -2.33)" fill="#315969"/>
    <path id="Path_71" data-name="Path 71" d="M1103.11,244.686a6.715,6.715,0,0,0-4.816,3.15,13.632,13.632,0,0,0-1.725,7.427l.238,42.191q0,13.193.357,21.274a4.656,4.656,0,0,1-.713,2.971h-1.071q-10.823-11.053-60.3-57.166l-.356,36.249v9.033a13.633,13.633,0,0,0,1.724,7.428,6.711,6.711,0,0,0,4.816,3.149v.119h-19.742v-.119a6.717,6.717,0,0,0,4.816-3.149,13.65,13.65,0,0,0,1.724-7.428V299.357l.357-43.618q0-7.725-.238-11.409h.356l59.7,54.2q.95,1.069,1.308,1.069c.316,0,.476-.514.476-1.545l-.119-42.786a13.657,13.657,0,0,0-1.724-7.427,6.726,6.726,0,0,0-4.817-3.15v-.118h19.743Z" transform="translate(-50.871 -2.433)" fill="#315969"/>
    <text id="FORGE_YOUR_FUTURE" data-name="FORGE YOUR FUTURE" transform="translate(554.249 373.313)" fill="#315969" font-size="40" font-family="Assassin$" letter-spacing="0.035em"><tspan x="0" y="0">FORGE YOUR FUTURE</tspan></text>
    <g id="Group_22" data-name="Group 22" transform="translate(889.368 255.502)">
      <path id="Path_72" data-name="Path 72" d="M935.547,318.381l3.855-3.856c-1.184,1.372-2.359,2.734-3.544,4.105C935.752,318.541,935.654,318.461,935.547,318.381Z" transform="translate(-935.547 -261.765)" fill="#315969"/>
      <path id="Path_73" data-name="Path 73" d="M978.278,311.266c1.361-.543,4.514-1.79,5.849-2.324a8.934,8.934,0,0,1-1.166,1.1c.107,0,.214-.009.329-.009-.026.81-1.255,1.674-3.037,2.573.018-.107.036-.2.045-.312-.276.232-.544.463-.811.686.268-.134.526-.258.766-.374-.2,1.2-.462,2.386-3.019,2.431a16.754,16.754,0,0,1,2.227-2.048c-4.826,2.261-12.519,4.667-12.591,6.688-19.653-.668,1.265.365-18.388-.312,1.576-.374-.989.143-1.167.143a4.056,4.056,0,0,1,.65-.179c-.142.187.107-.026.072-.1a6.624,6.624,0,0,1-.685-3.909c.2-1.977.961-3.936,1.095-5.922.16-2.4.178-4.817.267-7.231-.311-.062-.623-.133-.934-.2q-3.954,4.582-7.9,9.155a.008.008,0,0,0-.009.009l-.312-.268-.774-.65-.205-.169v-.009c3.428-4.123,6.874-8.238,10.383-12.28,1.175-1.344,1.309-2.529-.089-3.437-4.693-3.063-5.441-6.741-2.191-11.319a4.02,4.02,0,0,0,.641-2.538c-.463-4.764,2.69-7.213,5.939-9.661a23.3,23.3,0,0,0,2.289-2.485c-2.868-.409-5.014-.712-7.16-1.015-.125-.24-.24-.49-.365-.73,3.108-2.556,6.216-5.111,9.537-7.854,3.187,2.885,6.117,5.548,9.706,8.807-3.2.32-5.459.543-7.72.766-.169.25-.347.49-.516.739,3.731,2.8,7.791,5.333,8.611,10.49,1.344-.81,2.306-1.38,3.624-2.182-.125,2.591-4.212,2.92-2.582,5.842,1.05,1.879,1.843,3.891,2.743,5.814-1.122,1.434-2.325,2.823-3.367,4.328-1.309,1.887-1.024,3.606,1.113,4.63,6.644,3.17,8.46,5.467,13.723,6.652a36.509,36.509,0,0,0,5.183.7C988.082,305.389,978.278,310.7,978.278,311.266Z" transform="translate(-935.712 -258.72)" fill="#315969"/>
      <path id="Path_74" data-name="Path 74" d="M986.765,311.791c.312-.125.5-.186.57-.214-.08.036-.286.125-.58.25A.064.064,0,0,0,986.765,311.791Z" transform="translate(-938.341 -261.604)" fill="#315969"/>
    </g>
    <line id="Line_6" data-name="Line 6" x1="1.781" y2="4.63" transform="translate(668.843 292.768)" fill="#006838"/>
    <line id="Line_7" data-name="Line 7" x1="1.906" y1="4.63" transform="translate(700.828 292.768)" fill="#006838"/>
    <path id="Path_75" data-name="Path 75" d="M932.381,319.206c.232.152.463.3.7.455l-.713-.445Z" transform="translate(-46.006 -6.519)" fill="#315969"/>
    <path id="Path_76" data-name="Path 76" d="M939.955,314.176l-.33.329c.1-.115.2-.232.3-.347Z" transform="translate(-46.402 -6.244)" fill="#315969"/>
  </g>
</svg>
